{
	"asset":{
		"generator":"Khronos glTF Blender I/O v3.5.30",
		"version":"2.0"
	},
	"extensionsUsed":[
		"KHR_materials_specular",
		"KHR_materials_ior"
	],
	"scene":0,
	"scenes":[
		{
			"name":"Scene",
			"nodes":[
				0,
				1
			]
		}
	],
	"nodes":[
		{
			"mesh":0,
			"name":"model",
			"rotation":[
				-0.09298974275588989,
				-0.7009657025337219,
				-0.09298974275588989,
				0.7009657025337219
			],
			"translation":[
				0,
				3.0706465244293213,
				0
			]
		},
		{
			"mesh":1,
			"name":"model_2",
			"rotation":[
				-0.09298974275588989,
				-0.7009657025337219,
				-0.09298974275588989,
				0.7009657025337219
			],
			"translation":[
				0,
				3.0706465244293213,
				0
			]
		}
	],
	"materials":[
		{
			"doubleSided":true,
			"emissiveFactor":[
				0.02906111069023609,
				0.02906111069023609,
				0.02906111069023609
			],
			"extensions":{
				"KHR_materials_specular":{
					"specularColorFactor":[
						0,
						0,
						0
					]
				},
				"KHR_materials_ior":{
					"ior":1.4500000476837158
				}
			},
			"name":"karam.002",
			"pbrMetallicRoughness":{
				"baseColorTexture":{
					"index":0
				},
				"roughnessFactor":0.05000000074505806
			}
		},
		{
			"doubleSided":true,
			"emissiveFactor":[
				0.01959380879998207,
				0.01959380879998207,
				0.01959380879998207
			],
			"extensions":{
				"KHR_materials_specular":{
					"specularColorFactor":[
						0,
						0,
						0
					]
				},
				"KHR_materials_ior":{
					"ior":1.4500000476837158
				}
			},
			"name":"Material.003",
			"pbrMetallicRoughness":{
				"baseColorTexture":{
					"index":1
				},
				"metallicFactor":0,
				"roughnessFactor":0
			}
		}
	],
	"meshes":[
		{
			"name":"model.001",
			"primitives":[
				{
					"attributes":{
						"POSITION":0,
						"TEXCOORD_0":1,
						"NORMAL":2
					},
					"indices":3,
					"material":0
				}
			]
		},
		{
			"name":"model_2.001",
			"primitives":[
				{
					"attributes":{
						"POSITION":4,
						"TEXCOORD_0":5,
						"NORMAL":6
					},
					"indices":7,
					"material":0
				},
				{
					"attributes":{
						"POSITION":8,
						"TEXCOORD_0":9,
						"NORMAL":10
					},
					"indices":11,
					"material":1
				}
			]
		}
	],
	"textures":[
		{
			"sampler":0,
			"source":0
		},
		{
			"sampler":0,
			"source":0
		}
	],
	"images":[
		{
			"mimeType":"image/png",
			"name":"ed669b34b82ed8e46b09b8bb4f1deb9f_texture1",
			"uri":"ed669b34b82ed8e46b09b8bb4f1deb9f_texture1.png"
		}
	],
	"accessors":[
		{
			"bufferView":0,
			"componentType":5126,
			"count":1877,
			"max":[
				0.28360798954963684,
				6.210573196411133,
				3.0726819038391113
			],
			"min":[
				-0.2150609940290451,
				-5.2994890213012695,
				-1.7980459928512573
			],
			"type":"VEC3"
		},
		{
			"bufferView":1,
			"componentType":5126,
			"count":1877,
			"type":"VEC2"
		},
		{
			"bufferView":2,
			"componentType":5126,
			"count":1877,
			"type":"VEC3"
		},
		{
			"bufferView":3,
			"componentType":5123,
			"count":6588,
			"type":"SCALAR"
		},
		{
			"bufferView":4,
			"componentType":5126,
			"count":4138,
			"max":[
				0.45434799790382385,
				0.7728809714317322,
				2.7868430614471436
			],
			"min":[
				-0.33910301327705383,
				-5.226286888122559,
				-1.8154029846191406
			],
			"type":"VEC3"
		},
		{
			"bufferView":5,
			"componentType":5126,
			"count":4138,
			"type":"VEC2"
		},
		{
			"bufferView":6,
			"componentType":5126,
			"count":4138,
			"type":"VEC3"
		},
		{
			"bufferView":7,
			"componentType":5123,
			"count":8664,
			"type":"SCALAR"
		},
		{
			"bufferView":8,
			"componentType":5126,
			"count":6278,
			"max":[
				0.4099229872226715,
				1.6703070402145386,
				1.857800006866455
			],
			"min":[
				-0.3315170109272003,
				-4.901800155639648,
				-1.8991730213165283
			],
			"type":"VEC3"
		},
		{
			"bufferView":9,
			"componentType":5126,
			"count":6278,
			"type":"VEC2"
		},
		{
			"bufferView":10,
			"componentType":5126,
			"count":6278,
			"type":"VEC3"
		},
		{
			"bufferView":11,
			"componentType":5123,
			"count":26562,
			"type":"SCALAR"
		}
	],
	"bufferViews":[
		{
			"buffer":0,
			"byteLength":22524,
			"byteOffset":0,
			"target":34962
		},
		{
			"buffer":0,
			"byteLength":15016,
			"byteOffset":22524,
			"target":34962
		},
		{
			"buffer":0,
			"byteLength":22524,
			"byteOffset":37540,
			"target":34962
		},
		{
			"buffer":0,
			"byteLength":13176,
			"byteOffset":60064,
			"target":34963
		},
		{
			"buffer":0,
			"byteLength":49656,
			"byteOffset":73240,
			"target":34962
		},
		{
			"buffer":0,
			"byteLength":33104,
			"byteOffset":122896,
			"target":34962
		},
		{
			"buffer":0,
			"byteLength":49656,
			"byteOffset":156000,
			"target":34962
		},
		{
			"buffer":0,
			"byteLength":17328,
			"byteOffset":205656,
			"target":34963
		},
		{
			"buffer":0,
			"byteLength":75336,
			"byteOffset":222984,
			"target":34962
		},
		{
			"buffer":0,
			"byteLength":50224,
			"byteOffset":298320,
			"target":34962
		},
		{
			"buffer":0,
			"byteLength":75336,
			"byteOffset":348544,
			"target":34962
		},
		{
			"buffer":0,
			"byteLength":53124,
			"byteOffset":423880,
			"target":34963
		}
	],
	"samplers":[
		{
			"magFilter":9729,
			"minFilter":9987
		}
	],
	"buffers":[
		{
			"byteLength":477004,
			"uri":"website.bin"
		}
	]
}
