{
	"asset":{
		"generator":"Khronos glTF Blender I/O v3.5.30",
		"version":"2.0"
	},
	"scene":0,
	"scenes":[
		{
			"name":"Scene",
			"nodes":[
				0,
				1,
				2,
				3,
				4
			]
		}
	],
	"nodes":[
		{
			"mesh":0,
			"name":"model",
			"rotation":[
				0.5,
				-0.5,
				0.5,
				0.5000000596046448
			],
			"translation":[
				0,
				4.503176212310791,
				0
			]
		},
		{
			"mesh":1,
			"name":"sticker_1",
			"rotation":[
				0.5,
				-0.5,
				0.5,
				0.5000000596046448
			],
			"translation":[
				0,
				4.503176212310791,
				0
			]
		},
		{
			"mesh":2,
			"name":"sticker_2",
			"rotation":[
				0.5,
				-0.5,
				0.5,
				0.5000000596046448
			],
			"translation":[
				0,
				4.503176212310791,
				0
			]
		},
		{
			"mesh":3,
			"name":"sticker_3",
			"rotation":[
				0.5,
				-0.5,
				0.5,
				0.5000000596046448
			],
			"translation":[
				0,
				4.503176212310791,
				0
			]
		},
		{
			"mesh":4,
			"name":"model_2",
			"rotation":[
				0.5,
				-0.5,
				0.5,
				0.5000000596046448
			],
			"translation":[
				0,
				4.503176212310791,
				0
			]
		}
	],
	"materials":[
		{
			"doubleSided":true,
			"emissiveFactor":[
				0.0010000000474974513,
				0.0010000000474974513,
				0.0010000000474974513
			],
			"name":"pist_cz_75",
			"pbrMetallicRoughness":{
				"baseColorTexture":{
					"index":0
				},
				"metallicFactor":0.75,
				"roughnessFactor":0.1772727370262146
			}
		},
		{
			"alphaCutoff":0,
			"alphaMode":"MASK",
			"doubleSided":true,
			"name":"pist_cz_75_decal_A",
			"pbrMetallicRoughness":{
				"baseColorTexture":{
					"index":1
				},
				"roughnessFactor":0.1772727370262146
			}
		},
		{
			"alphaCutoff":0,
			"alphaMode":"MASK",
			"doubleSided":true,
			"name":"pist_cz_75_decal_B",
			"pbrMetallicRoughness":{
				"baseColorTexture":{
					"index":2
				},
				"roughnessFactor":0.1772727370262146
			}
		}
	],
	"meshes":[
		{
			"name":"model",
			"primitives":[
				{
					"attributes":{
						"POSITION":0,
						"TEXCOORD_0":1,
						"NORMAL":2
					},
					"indices":3,
					"material":0
				}
			]
		},
		{
			"name":"sticker_1",
			"primitives":[
				{
					"attributes":{
						"POSITION":4,
						"TEXCOORD_0":5,
						"NORMAL":6
					},
					"indices":7,
					"material":1
				}
			]
		},
		{
			"name":"sticker_2",
			"primitives":[
				{
					"attributes":{
						"POSITION":8,
						"TEXCOORD_0":9,
						"NORMAL":10
					},
					"indices":11,
					"material":2
				}
			]
		},
		{
			"name":"sticker_3",
			"primitives":[
				{
					"attributes":{
						"POSITION":12,
						"TEXCOORD_0":13,
						"NORMAL":14
					},
					"indices":15,
					"material":2
				}
			]
		},
		{
			"name":"model_2",
			"primitives":[
				{
					"attributes":{
						"POSITION":16,
						"TEXCOORD_0":17,
						"NORMAL":18
					},
					"indices":19,
					"material":0
				}
			]
		}
	],
	"textures":[
		{
			"sampler":0,
			"source":0
		},
		{
			"sampler":0,
			"source":1
		},
		{
			"sampler":0,
			"source":2
		}
	],
	"images":[
		{
			"mimeType":"image/png",
			"name":"95daa16a890d0e664aced4a2f59ee19f_texture1",
			"uri":"95daa16a890d0e664aced4a2f59ee19f_texture1.png"
		},
		{
			"mimeType":"image/png",
			"name":"ninjasinpyjamas",
			"uri":"ninjasinpyjamas.png"
		},
		{
			"mimeType":"image/png",
			"name":"penta",
			"uri":"penta.png"
		}
	],
	"accessors":[
		{
			"bufferView":0,
			"componentType":5126,
			"count":16098,
			"max":[
				0.6504129767417908,
				5.7563090324401855,
				3.542025089263916
			],
			"min":[
				-0.6466339826583862,
				-5.030220985412598,
				-2.464725971221924
			],
			"type":"VEC3"
		},
		{
			"bufferView":1,
			"componentType":5126,
			"count":16098,
			"type":"VEC2"
		},
		{
			"bufferView":2,
			"componentType":5126,
			"count":16098,
			"type":"VEC3"
		},
		{
			"bufferView":3,
			"componentType":5123,
			"count":59139,
			"type":"SCALAR"
		},
		{
			"bufferView":4,
			"componentType":5126,
			"count":306,
			"max":[
				0.4852069914340973,
				1.8331340551376343,
				-0.48997798562049866
			],
			"min":[
				0.15910600125789642,
				-0.021053999662399292,
				-2.26397705078125
			],
			"type":"VEC3"
		},
		{
			"bufferView":5,
			"componentType":5126,
			"count":306,
			"type":"VEC2"
		},
		{
			"bufferView":6,
			"componentType":5126,
			"count":306,
			"type":"VEC3"
		},
		{
			"bufferView":7,
			"componentType":5123,
			"count":1023,
			"type":"SCALAR"
		},
		{
			"bufferView":8,
			"componentType":5126,
			"count":435,
			"max":[
				0.604649007320404,
				-0.03728000074625015,
				-0.4169729948043823
			],
			"min":[
				0.15910500288009644,
				-1.8914669752120972,
				-2.26440691947937
			],
			"type":"VEC3"
		},
		{
			"bufferView":9,
			"componentType":5126,
			"count":435,
			"type":"VEC2"
		},
		{
			"bufferView":10,
			"componentType":5126,
			"count":435,
			"type":"VEC3"
		},
		{
			"bufferView":11,
			"componentType":5123,
			"count":1572,
			"type":"SCALAR"
		},
		{
			"bufferView":12,
			"componentType":5126,
			"count":1263,
			"max":[
				0.6795859932899475,
				-1.6403559446334839,
				0.07673300057649612
			],
			"min":[
				0.31763699650764465,
				-3.6739349365234375,
				-1.9568469524383545
			],
			"type":"VEC3"
		},
		{
			"bufferView":13,
			"componentType":5126,
			"count":1263,
			"type":"VEC2"
		},
		{
			"bufferView":14,
			"componentType":5126,
			"count":1263,
			"type":"VEC3"
		},
		{
			"bufferView":15,
			"componentType":5123,
			"count":5181,
			"type":"SCALAR"
		},
		{
			"bufferView":16,
			"componentType":5126,
			"count":2973,
			"max":[
				0.47061100602149963,
				3.3415050506591797,
				4.333357810974121
			],
			"min":[
				-0.4567260146141052,
				0.4195919930934906,
				-0.8271219730377197
			],
			"type":"VEC3"
		},
		{
			"bufferView":17,
			"componentType":5126,
			"count":2973,
			"type":"VEC2"
		},
		{
			"bufferView":18,
			"componentType":5126,
			"count":2973,
			"type":"VEC3"
		},
		{
			"bufferView":19,
			"componentType":5123,
			"count":10704,
			"type":"SCALAR"
		}
	],
	"bufferViews":[
		{
			"buffer":0,
			"byteLength":193176,
			"byteOffset":0,
			"target":34962
		},
		{
			"buffer":0,
			"byteLength":128784,
			"byteOffset":193176,
			"target":34962
		},
		{
			"buffer":0,
			"byteLength":193176,
			"byteOffset":321960,
			"target":34962
		},
		{
			"buffer":0,
			"byteLength":118278,
			"byteOffset":515136,
			"target":34963
		},
		{
			"buffer":0,
			"byteLength":3672,
			"byteOffset":633416,
			"target":34962
		},
		{
			"buffer":0,
			"byteLength":2448,
			"byteOffset":637088,
			"target":34962
		},
		{
			"buffer":0,
			"byteLength":3672,
			"byteOffset":639536,
			"target":34962
		},
		{
			"buffer":0,
			"byteLength":2046,
			"byteOffset":643208,
			"target":34963
		},
		{
			"buffer":0,
			"byteLength":5220,
			"byteOffset":645256,
			"target":34962
		},
		{
			"buffer":0,
			"byteLength":3480,
			"byteOffset":650476,
			"target":34962
		},
		{
			"buffer":0,
			"byteLength":5220,
			"byteOffset":653956,
			"target":34962
		},
		{
			"buffer":0,
			"byteLength":3144,
			"byteOffset":659176,
			"target":34963
		},
		{
			"buffer":0,
			"byteLength":15156,
			"byteOffset":662320,
			"target":34962
		},
		{
			"buffer":0,
			"byteLength":10104,
			"byteOffset":677476,
			"target":34962
		},
		{
			"buffer":0,
			"byteLength":15156,
			"byteOffset":687580,
			"target":34962
		},
		{
			"buffer":0,
			"byteLength":10362,
			"byteOffset":702736,
			"target":34963
		},
		{
			"buffer":0,
			"byteLength":35676,
			"byteOffset":713100,
			"target":34962
		},
		{
			"buffer":0,
			"byteLength":23784,
			"byteOffset":748776,
			"target":34962
		},
		{
			"buffer":0,
			"byteLength":35676,
			"byteOffset":772560,
			"target":34962
		},
		{
			"buffer":0,
			"byteLength":21408,
			"byteOffset":808236,
			"target":34963
		}
	],
	"samplers":[
		{
			"magFilter":9729,
			"minFilter":9987
		}
	],
	"buffers":[
		{
			"byteLength":829644,
			"uri":"website.bin"
		}
	]
}
